# xmcd
#
# Track frame offsets:
#	150
#	19164
#	30280
#	38024
#	54954
#	72302
#	87367
#	106266
#	116858
#	134427
#	149600
#	167930
#	180423
#	202710
#	220799
#
# Disc length: 3248 seconds
#
# Revision: 1
# Processed by: cddbd v1.5.2PL0 Copyright (c) Steve Scherf et al.
# Submitted via: EasyCDDAExtractor 16.1.0.1
#
DISCID=cc0cae0f
DTITLE=Emporio Armani  - Caffe 5
DYEAR=2010
DGENRE=
TTITLE0=The Real Tuesday Weld - The Real Before You Came
TTITLE1=Flow. Experience - Fade to Graey (Dub RMX)
TTITLE2=Grand National - Rub Your Potion (Fear of Theydon Mix)
TTITLE3=Tones on Tail - Lions
TTITLE4=David Motion ans Sally Potter - The Maze
TTITLE5=Matt Gordon - Anne
TTITLE6=Club des Beugas - A Men`s Scene
TTITLE7=Orchestra di Piazza Vittorio - Tarareando
TTITLE8=Lindstrom - Gentle As A Giant
TTITLE9=Klaus Waldeck - Midsummer Night Blues
TTITLE10=Joker`s Daughter - Kyoto Song
TTITLE11=Ceccarini - Albini - Amigdala
TTITLE12=Raz Ohara and The Odd Orchestra - Where He At (Apparat Remix)
TTITLE13=Five Points - End titles
TTITLE14=Wim Mertens - StruggleFor Pleasure
EXTD=
EXTT0=
EXTT1=
EXTT2=
EXTT3=
EXTT4=
EXTT5=
EXTT6=
EXTT7=
EXTT8=
EXTT9=
EXTT10=
EXTT11=
EXTT12=
EXTT13=
EXTT14=
PLAYORDER=
